<?xml version="1.0" encoding="UTF-8"?>
<svg id="uuid-97b4184c-601a-480b-af49-7f51a6b2cbb0" data-name="Capa 2" xmlns="http://www.w3.org/2000/svg" viewBox="0 0 6000 571.08">
  <defs>
    <style>
      .uuid-229738b5-8bce-4d31-b9af-479a42b6f24b {
        fill: #fff;
        stroke-width: 0px;
      }
    </style>
  </defs>
  <g id="uuid-2b6e9b16-80ee-42ea-aa02-2876a109bc7d" data-name="Capa 1">
    <g>
      <g>
        <path class="uuid-229738b5-8bce-4d31-b9af-479a42b6f24b" d="M0,562.75l31.44,8.33s384.57-117.21,501.63-125.2c117.05,7.99,501.64,125.2,501.64,125.2l31.43-8.33s-334.46-229.83-533.07-234.29C334.46,332.92,0,562.75,0,562.75"/>
        <path class="uuid-229738b5-8bce-4d31-b9af-479a42b6f24b" d="M1066.14,8.33l-31.43-8.33s-384.58,117.21-501.63,125.2C416.01,117.21,31.43,0,31.43,0L0,8.33s334.46,229.83,533.08,234.29c198.6-4.47,533.06-234.29,533.06-234.29"/>
      </g>
      <path class="uuid-229738b5-8bce-4d31-b9af-479a42b6f24b" d="M1530.67,149.45h-29.45v400.55h-136.95V34.59h252.55l124.44,295.26h44.18l123.7-295.26h252.55v515.41h-136.95V149.45h-29.45l-129.59,295.26h-204.69l-130.33-295.26ZM2323.67,34.59h136.95v515.41h-136.95V34.59ZM2622.6,34.59h245.18l268.02,400.55h29.45V34.59h136.95v515.41h-245.19l-268.01-400.55h-29.45v400.55h-136.95V34.59ZM3449.47,550v-114.87h483.75c28.71,0,44.92-16.2,44.92-44.91s-16.2-44.91-44.92-44.91h-324.71c-108.24,0-173.77-58.17-173.77-155.36s65.53-155.36,173.77-155.36h473.44v114.87h-473.44c-25.77,0-40.5,14.72-40.5,40.5s14.73,40.5,40.5,40.5h324.71c111.92,0,178.19,59.64,178.19,159.78s-66.26,159.78-178.19,159.78h-483.75ZM4169.56,547.06l307.04-512.47h194.38l307.04,512.47v2.94h-152.41l-55.22-95.72h-393.18l-55.22,95.72h-152.41v-2.94ZM4704.85,339.42l-108.97-189.97h-44.18l-108.97,189.97h262.12ZM5085.52,34.59h136.95v515.41h-136.95V34.59ZM5600.19,149.45h-262.86V34.59h662.67v114.87h-262.86v400.55h-136.95V149.45Z"/>
    </g>
  </g>
</svg>